<?xml version="1.0" encoding="UTF-8" standalone="no"?>
<!DOCTYPE svg PUBLIC "-//W3C//DTD SVG 1.1//EN"
 "http://www.w3.org/Graphics/SVG/1.1/DTD/svg11.dtd">
<!-- Generated by graphviz version 2.50.0 (20211204.2007)
 -->
<!-- Title: graph_file Pages: 1 -->
<svg width="871pt" height="184pt"
 viewBox="0.00 0.00 871.00 184.00" xmlns="http://www.w3.org/2000/svg" xmlns:xlink="http://www.w3.org/1999/xlink">
<g id="graph0" class="graph" transform="scale(1 1) rotate(0) translate(4 180)">
<title>graph_file</title>
<polygon fill="white" stroke="transparent" points="-4,4 -4,-180 867,-180 867,4 -4,4"/>
<!-- 0 -->
<g id="node1" class="node">
<title>0</title>
<polygon fill="#add8e6" stroke="black" points="0,-106.5 0,-175.5 428,-175.5 428,-106.5 0,-106.5"/>
<text text-anchor="middle" x="129.5" y="-137.3" font-family="Times,serif" font-size="14.00">function:Int::Int(const std::string &amp;, int64_t)</text>
<polyline fill="none" stroke="black" points="259,-106.5 259,-175.5 "/>
<text text-anchor="middle" x="290.5" y="-160.3" font-family="Times,serif" font-size="14.00">name:a</text>
<polyline fill="none" stroke="black" points="259,-152.5 322,-152.5 "/>
<text text-anchor="middle" x="290.5" y="-137.3" font-family="Times,serif" font-size="14.00">value:42</text>
<polyline fill="none" stroke="black" points="259,-129.5 322,-129.5 "/>
<text text-anchor="middle" x="290.5" y="-114.3" font-family="Times,serif" font-size="14.00">idx:0</text>
<polyline fill="none" stroke="black" points="322,-106.5 322,-175.5 "/>
<text text-anchor="middle" x="375" y="-137.3" font-family="Times,serif" font-size="14.00">ptr:0x16cf6b0e0</text>
</g>
<!-- 2 -->
<g id="node3" class="node">
<title>2</title>
<polygon fill="#ff0000" stroke="black" points="25.5,-0.5 25.5,-69.5 402.5,-69.5 402.5,-0.5 25.5,-0.5"/>
<text text-anchor="middle" x="112.5" y="-31.3" font-family="Times,serif" font-size="14.00">function:Int::Int(const Int &amp;)</text>
<polyline fill="none" stroke="black" points="199.5,-0.5 199.5,-69.5 "/>
<text text-anchor="middle" x="247.5" y="-54.3" font-family="Times,serif" font-size="14.00">name:tmp_var</text>
<polyline fill="none" stroke="black" points="199.5,-46.5 295.5,-46.5 "/>
<text text-anchor="middle" x="247.5" y="-31.3" font-family="Times,serif" font-size="14.00">value:42</text>
<polyline fill="none" stroke="black" points="199.5,-23.5 295.5,-23.5 "/>
<text text-anchor="middle" x="247.5" y="-8.3" font-family="Times,serif" font-size="14.00">idx:2</text>
<polyline fill="none" stroke="black" points="295.5,-0.5 295.5,-69.5 "/>
<text text-anchor="middle" x="349" y="-31.3" font-family="Times,serif" font-size="14.00">ptr:0x16cf6b170</text>
</g>
<!-- 0&#45;&gt;2 -->
<g id="edge1" class="edge">
<title>0&#45;&gt;2</title>
<path fill="none" stroke="#000000" stroke-dasharray="5,2" d="M214,-106.23C214,-97.79 214,-88.62 214,-79.77"/>
<polygon fill="#000000" stroke="#000000" points="217.5,-79.6 214,-69.6 210.5,-79.6 217.5,-79.6"/>
</g>
<!-- 1 -->
<g id="node2" class="node">
<title>1</title>
<polygon fill="#add8e6" stroke="black" points="500,-106.5 500,-175.5 850,-175.5 850,-106.5 500,-106.5"/>
<text text-anchor="middle" x="575" y="-137.3" font-family="Times,serif" font-size="14.00">function:Int::Int(int64_t)</text>
<polyline fill="none" stroke="black" points="650,-106.5 650,-175.5 "/>
<text text-anchor="middle" x="698" y="-160.3" font-family="Times,serif" font-size="14.00">name:tmp_var</text>
<polyline fill="none" stroke="black" points="650,-152.5 746,-152.5 "/>
<text text-anchor="middle" x="698" y="-137.3" font-family="Times,serif" font-size="14.00">value:12</text>
<polyline fill="none" stroke="black" points="650,-129.5 746,-129.5 "/>
<text text-anchor="middle" x="698" y="-114.3" font-family="Times,serif" font-size="14.00">idx:1</text>
<polyline fill="none" stroke="black" points="746,-106.5 746,-175.5 "/>
<text text-anchor="middle" x="798" y="-137.3" font-family="Times,serif" font-size="14.00">ptr:0x16cf6b1f0</text>
</g>
<!-- 3 -->
<g id="node4" class="node">
<title>3</title>
<polygon fill="#ff0000" stroke="black" points="487,-0.5 487,-69.5 863,-69.5 863,-0.5 487,-0.5"/>
<text text-anchor="middle" x="574" y="-31.3" font-family="Times,serif" font-size="14.00">function:Int::Int(const Int &amp;)</text>
<polyline fill="none" stroke="black" points="661,-0.5 661,-69.5 "/>
<text text-anchor="middle" x="709" y="-54.3" font-family="Times,serif" font-size="14.00">name:tmp_var</text>
<polyline fill="none" stroke="black" points="661,-46.5 757,-46.5 "/>
<text text-anchor="middle" x="709" y="-31.3" font-family="Times,serif" font-size="14.00">value:12</text>
<polyline fill="none" stroke="black" points="661,-23.5 757,-23.5 "/>
<text text-anchor="middle" x="709" y="-8.3" font-family="Times,serif" font-size="14.00">idx:3</text>
<polyline fill="none" stroke="black" points="757,-0.5 757,-69.5 "/>
<text text-anchor="middle" x="810" y="-31.3" font-family="Times,serif" font-size="14.00">ptr:0x16cf6b1a0</text>
</g>
<!-- 1&#45;&gt;3 -->
<g id="edge2" class="edge">
<title>1&#45;&gt;3</title>
<path fill="none" stroke="#000000" stroke-dasharray="5,2" d="M675,-106.23C675,-97.79 675,-88.62 675,-79.77"/>
<polygon fill="#000000" stroke="#000000" points="678.5,-79.6 675,-69.6 671.5,-79.6 678.5,-79.6"/>
</g>
</g>
</svg>
