<?xml version="1.0" encoding="UTF-8" standalone="no"?>
<!DOCTYPE svg PUBLIC "-//W3C//DTD SVG 1.1//EN"
 "http://www.w3.org/Graphics/SVG/1.1/DTD/svg11.dtd">
<!-- Generated by graphviz version 2.50.0 (20211204.2007)
 -->
<!-- Title: graph_file Pages: 1 -->
<svg width="876pt" height="184pt"
 viewBox="0.00 0.00 876.00 184.00" xmlns="http://www.w3.org/2000/svg" xmlns:xlink="http://www.w3.org/1999/xlink">
<g id="graph0" class="graph" transform="scale(1 1) rotate(0) translate(4 180)">
<title>graph_file</title>
<polygon fill="white" stroke="transparent" points="-4,4 -4,-180 872,-180 872,4 -4,4"/>
<!-- 0 -->
<g id="node1" class="node">
<title>0</title>
<polygon fill="#add8e6" stroke="black" points="0,-106.5 0,-175.5 430,-175.5 430,-106.5 0,-106.5"/>
<text text-anchor="middle" x="129.5" y="-137.3" font-family="Times,serif" font-size="14.00">function:Int::Int(const std::string &amp;, int64_t)</text>
<polyline fill="none" stroke="black" points="259,-106.5 259,-175.5 "/>
<text text-anchor="middle" x="290.5" y="-160.3" font-family="Times,serif" font-size="14.00">name:a</text>
<polyline fill="none" stroke="black" points="259,-152.5 322,-152.5 "/>
<text text-anchor="middle" x="290.5" y="-137.3" font-family="Times,serif" font-size="14.00">value:42</text>
<polyline fill="none" stroke="black" points="259,-129.5 322,-129.5 "/>
<text text-anchor="middle" x="290.5" y="-114.3" font-family="Times,serif" font-size="14.00">idx:0</text>
<polyline fill="none" stroke="black" points="322,-106.5 322,-175.5 "/>
<text text-anchor="middle" x="376" y="-137.3" font-family="Times,serif" font-size="14.00">ptr:0x16ee97160</text>
</g>
<!-- 2 -->
<g id="node3" class="node">
<title>2</title>
<polygon fill="#ff0000" stroke="black" points="27,-0.5 27,-69.5 403,-69.5 403,-0.5 27,-0.5"/>
<text text-anchor="middle" x="114" y="-31.3" font-family="Times,serif" font-size="14.00">function:Int::Int(const Int &amp;)</text>
<polyline fill="none" stroke="black" points="201,-0.5 201,-69.5 "/>
<text text-anchor="middle" x="249" y="-54.3" font-family="Times,serif" font-size="14.00">name:tmp_var</text>
<polyline fill="none" stroke="black" points="201,-46.5 297,-46.5 "/>
<text text-anchor="middle" x="249" y="-31.3" font-family="Times,serif" font-size="14.00">value:42</text>
<polyline fill="none" stroke="black" points="201,-23.5 297,-23.5 "/>
<text text-anchor="middle" x="249" y="-8.3" font-family="Times,serif" font-size="14.00">idx:2</text>
<polyline fill="none" stroke="black" points="297,-0.5 297,-69.5 "/>
<text text-anchor="middle" x="350" y="-31.3" font-family="Times,serif" font-size="14.00">ptr:0x16ee971f0</text>
</g>
<!-- 0&#45;&gt;2 -->
<g id="edge1" class="edge">
<title>0&#45;&gt;2</title>
<path fill="none" stroke="#000000" stroke-dasharray="5,2" d="M215,-106.23C215,-97.79 215,-88.62 215,-79.77"/>
<polygon fill="#000000" stroke="#000000" points="218.5,-79.6 215,-69.6 211.5,-79.6 218.5,-79.6"/>
</g>
<!-- 1 -->
<g id="node2" class="node">
<title>1</title>
<polygon fill="#add8e6" stroke="black" points="502,-106.5 502,-175.5 856,-175.5 856,-106.5 502,-106.5"/>
<text text-anchor="middle" x="577" y="-137.3" font-family="Times,serif" font-size="14.00">function:Int::Int(int64_t)</text>
<polyline fill="none" stroke="black" points="652,-106.5 652,-175.5 "/>
<text text-anchor="middle" x="700" y="-160.3" font-family="Times,serif" font-size="14.00">name:tmp_var</text>
<polyline fill="none" stroke="black" points="652,-152.5 748,-152.5 "/>
<text text-anchor="middle" x="700" y="-137.3" font-family="Times,serif" font-size="14.00">value:42</text>
<polyline fill="none" stroke="black" points="652,-129.5 748,-129.5 "/>
<text text-anchor="middle" x="700" y="-114.3" font-family="Times,serif" font-size="14.00">idx:1</text>
<polyline fill="none" stroke="black" points="748,-106.5 748,-175.5 "/>
<text text-anchor="middle" x="802" y="-137.3" font-family="Times,serif" font-size="14.00">ptr:0x16ee97270</text>
</g>
<!-- 3 -->
<g id="node4" class="node">
<title>3</title>
<polygon fill="#ff0000" stroke="black" points="490,-0.5 490,-69.5 868,-69.5 868,-0.5 490,-0.5"/>
<text text-anchor="middle" x="577" y="-31.3" font-family="Times,serif" font-size="14.00">function:Int::Int(const Int &amp;)</text>
<polyline fill="none" stroke="black" points="664,-0.5 664,-69.5 "/>
<text text-anchor="middle" x="712" y="-54.3" font-family="Times,serif" font-size="14.00">name:tmp_var</text>
<polyline fill="none" stroke="black" points="664,-46.5 760,-46.5 "/>
<text text-anchor="middle" x="712" y="-31.3" font-family="Times,serif" font-size="14.00">value:42</text>
<polyline fill="none" stroke="black" points="664,-23.5 760,-23.5 "/>
<text text-anchor="middle" x="712" y="-8.3" font-family="Times,serif" font-size="14.00">idx:3</text>
<polyline fill="none" stroke="black" points="760,-0.5 760,-69.5 "/>
<text text-anchor="middle" x="814" y="-31.3" font-family="Times,serif" font-size="14.00">ptr:0x16ee97220</text>
</g>
<!-- 1&#45;&gt;3 -->
<g id="edge2" class="edge">
<title>1&#45;&gt;3</title>
<path fill="none" stroke="#000000" stroke-dasharray="5,2" d="M679,-106.23C679,-97.79 679,-88.62 679,-79.77"/>
<polygon fill="#000000" stroke="#000000" points="682.5,-79.6 679,-69.6 675.5,-79.6 682.5,-79.6"/>
</g>
</g>
</svg>
