<?xml version="1.0" encoding="UTF-8" standalone="no"?>
<!DOCTYPE svg PUBLIC "-//W3C//DTD SVG 1.1//EN"
 "http://www.w3.org/Graphics/SVG/1.1/DTD/svg11.dtd">
<!-- Generated by graphviz version 2.50.0 (20211204.2007)
 -->
<!-- Title: graph_file Pages: 1 -->
<svg width="867pt" height="184pt"
 viewBox="0.00 0.00 866.50 184.00" xmlns="http://www.w3.org/2000/svg" xmlns:xlink="http://www.w3.org/1999/xlink">
<g id="graph0" class="graph" transform="scale(1 1) rotate(0) translate(4 180)">
<title>graph_file</title>
<polygon fill="white" stroke="transparent" points="-4,4 -4,-180 862.5,-180 862.5,4 -4,4"/>
<!-- 0 -->
<g id="node1" class="node">
<title>0</title>
<polygon fill="#add8e6" stroke="black" points="0,-106.5 0,-175.5 431,-175.5 431,-106.5 0,-106.5"/>
<text text-anchor="middle" x="129.5" y="-137.3" font-family="Times,serif" font-size="14.00">function:Int::Int(const std::string &amp;, int64_t)</text>
<polyline fill="none" stroke="black" points="259,-106.5 259,-175.5 "/>
<text text-anchor="middle" x="290.5" y="-160.3" font-family="Times,serif" font-size="14.00">name:a</text>
<polyline fill="none" stroke="black" points="259,-152.5 322,-152.5 "/>
<text text-anchor="middle" x="290.5" y="-137.3" font-family="Times,serif" font-size="14.00">value:42</text>
<polyline fill="none" stroke="black" points="259,-129.5 322,-129.5 "/>
<text text-anchor="middle" x="290.5" y="-114.3" font-family="Times,serif" font-size="14.00">idx:0</text>
<polyline fill="none" stroke="black" points="322,-106.5 322,-175.5 "/>
<text text-anchor="middle" x="376.5" y="-137.3" font-family="Times,serif" font-size="14.00">ptr:0x16b5d70e0</text>
</g>
<!-- 2 -->
<g id="node3" class="node">
<title>2</title>
<polygon fill="#ff0000" stroke="black" points="25.5,-0.5 25.5,-69.5 405.5,-69.5 405.5,-0.5 25.5,-0.5"/>
<text text-anchor="middle" x="112.5" y="-31.3" font-family="Times,serif" font-size="14.00">function:Int::Int(const Int &amp;)</text>
<polyline fill="none" stroke="black" points="199.5,-0.5 199.5,-69.5 "/>
<text text-anchor="middle" x="247.5" y="-54.3" font-family="Times,serif" font-size="14.00">name:tmp_var</text>
<polyline fill="none" stroke="black" points="199.5,-46.5 295.5,-46.5 "/>
<text text-anchor="middle" x="247.5" y="-31.3" font-family="Times,serif" font-size="14.00">value:42</text>
<polyline fill="none" stroke="black" points="199.5,-23.5 295.5,-23.5 "/>
<text text-anchor="middle" x="247.5" y="-8.3" font-family="Times,serif" font-size="14.00">idx:2</text>
<polyline fill="none" stroke="black" points="295.5,-0.5 295.5,-69.5 "/>
<text text-anchor="middle" x="350.5" y="-31.3" font-family="Times,serif" font-size="14.00">ptr:0x16b5d7170</text>
</g>
<!-- 0&#45;&gt;2 -->
<g id="edge1" class="edge">
<title>0&#45;&gt;2</title>
<path fill="none" stroke="#000000" stroke-dasharray="5,2" d="M215.5,-106.23C215.5,-97.79 215.5,-88.62 215.5,-79.77"/>
<polygon fill="#000000" stroke="#000000" points="219,-79.6 215.5,-69.6 212,-79.6 219,-79.6"/>
</g>
<!-- 1 -->
<g id="node2" class="node">
<title>1</title>
<polygon fill="#add8e6" stroke="black" points="503,-106.5 503,-175.5 856,-175.5 856,-106.5 503,-106.5"/>
<text text-anchor="middle" x="578" y="-137.3" font-family="Times,serif" font-size="14.00">function:Int::Int(int64_t)</text>
<polyline fill="none" stroke="black" points="653,-106.5 653,-175.5 "/>
<text text-anchor="middle" x="701" y="-160.3" font-family="Times,serif" font-size="14.00">name:tmp_var</text>
<polyline fill="none" stroke="black" points="653,-152.5 749,-152.5 "/>
<text text-anchor="middle" x="701" y="-137.3" font-family="Times,serif" font-size="14.00">value:12</text>
<polyline fill="none" stroke="black" points="653,-129.5 749,-129.5 "/>
<text text-anchor="middle" x="701" y="-114.3" font-family="Times,serif" font-size="14.00">idx:1</text>
<polyline fill="none" stroke="black" points="749,-106.5 749,-175.5 "/>
<text text-anchor="middle" x="802.5" y="-137.3" font-family="Times,serif" font-size="14.00">ptr:0x16b5d71f0</text>
</g>
<!-- 3 -->
<g id="node4" class="node">
<title>3</title>
<polygon fill="#90ee90" stroke="black" points="500.5,-0.5 500.5,-69.5 858.5,-69.5 858.5,-0.5 500.5,-0.5"/>
<text text-anchor="middle" x="577" y="-31.3" font-family="Times,serif" font-size="14.00">function:Int::Int(Int &amp;&amp;)</text>
<polyline fill="none" stroke="black" points="653.5,-0.5 653.5,-69.5 "/>
<text text-anchor="middle" x="701.5" y="-54.3" font-family="Times,serif" font-size="14.00">name:tmp_var</text>
<polyline fill="none" stroke="black" points="653.5,-46.5 749.5,-46.5 "/>
<text text-anchor="middle" x="701.5" y="-31.3" font-family="Times,serif" font-size="14.00">value:12</text>
<polyline fill="none" stroke="black" points="653.5,-23.5 749.5,-23.5 "/>
<text text-anchor="middle" x="701.5" y="-8.3" font-family="Times,serif" font-size="14.00">idx:3</text>
<polyline fill="none" stroke="black" points="749.5,-0.5 749.5,-69.5 "/>
<text text-anchor="middle" x="804" y="-31.3" font-family="Times,serif" font-size="14.00">ptr:0x16b5d71a0</text>
</g>
<!-- 1&#45;&gt;3 -->
<g id="edge2" class="edge">
<title>1&#45;&gt;3</title>
<path fill="none" stroke="#000000" stroke-dasharray="5,2" d="M679.5,-106.23C679.5,-97.79 679.5,-88.62 679.5,-79.77"/>
<polygon fill="#000000" stroke="#000000" points="683,-79.6 679.5,-69.6 676,-79.6 683,-79.6"/>
</g>
</g>
</svg>
