<?xml version="1.0" encoding="UTF-8" standalone="no"?>
<!DOCTYPE svg PUBLIC "-//W3C//DTD SVG 1.1//EN"
 "http://www.w3.org/Graphics/SVG/1.1/DTD/svg11.dtd">
<!-- Generated by graphviz version 2.50.0 (20211204.2007)
 -->
<!-- Title: graph_file Pages: 1 -->
<svg width="864pt" height="290pt"
 viewBox="0.00 0.00 863.50 290.00" xmlns="http://www.w3.org/2000/svg" xmlns:xlink="http://www.w3.org/1999/xlink">
<g id="graph0" class="graph" transform="scale(1 1) rotate(0) translate(4 286)">
<title>graph_file</title>
<polygon fill="white" stroke="transparent" points="-4,4 -4,-286 859.5,-286 859.5,4 -4,4"/>
<!-- 0 -->
<g id="node1" class="node">
<title>0</title>
<polygon fill="#add8e6" stroke="black" points="0,-212.5 0,-281.5 429,-281.5 429,-212.5 0,-212.5"/>
<text text-anchor="middle" x="129.5" y="-243.3" font-family="Times,serif" font-size="14.00">function:Int::Int(const std::string &amp;, int64_t)</text>
<polyline fill="none" stroke="black" points="259,-212.5 259,-281.5 "/>
<text text-anchor="middle" x="290.5" y="-266.3" font-family="Times,serif" font-size="14.00">name:a</text>
<polyline fill="none" stroke="black" points="259,-258.5 322,-258.5 "/>
<text text-anchor="middle" x="290.5" y="-243.3" font-family="Times,serif" font-size="14.00">value:42</text>
<polyline fill="none" stroke="black" points="259,-235.5 322,-235.5 "/>
<text text-anchor="middle" x="290.5" y="-220.3" font-family="Times,serif" font-size="14.00">idx:0</text>
<polyline fill="none" stroke="black" points="322,-212.5 322,-281.5 "/>
<text text-anchor="middle" x="375.5" y="-243.3" font-family="Times,serif" font-size="14.00">ptr:0x16ba8f080</text>
</g>
<!-- 1 -->
<g id="node2" class="node">
<title>1</title>
<polygon fill="#ff0000" stroke="black" points="26,-106.5 26,-175.5 403,-175.5 403,-106.5 26,-106.5"/>
<text text-anchor="middle" x="113" y="-137.3" font-family="Times,serif" font-size="14.00">function:Int::Int(const Int &amp;)</text>
<polyline fill="none" stroke="black" points="200,-106.5 200,-175.5 "/>
<text text-anchor="middle" x="248" y="-160.3" font-family="Times,serif" font-size="14.00">name:tmp_var</text>
<polyline fill="none" stroke="black" points="200,-152.5 296,-152.5 "/>
<text text-anchor="middle" x="248" y="-137.3" font-family="Times,serif" font-size="14.00">value:42</text>
<polyline fill="none" stroke="black" points="200,-129.5 296,-129.5 "/>
<text text-anchor="middle" x="248" y="-114.3" font-family="Times,serif" font-size="14.00">idx:1</text>
<polyline fill="none" stroke="black" points="296,-106.5 296,-175.5 "/>
<text text-anchor="middle" x="349.5" y="-137.3" font-family="Times,serif" font-size="14.00">ptr:0x16ba8f190</text>
</g>
<!-- 0&#45;&gt;1 -->
<g id="edge1" class="edge">
<title>0&#45;&gt;1</title>
<path fill="none" stroke="#000000" stroke-dasharray="5,2" d="M214.5,-212.23C214.5,-203.79 214.5,-194.62 214.5,-185.77"/>
<polygon fill="#000000" stroke="#000000" points="218,-185.6 214.5,-175.6 211,-185.6 218,-185.6"/>
</g>
<!-- 3 -->
<g id="node4" class="node">
<title>3</title>
<polygon fill="#90ee90" stroke="black" points="36.5,-0.5 36.5,-69.5 392.5,-69.5 392.5,-0.5 36.5,-0.5"/>
<text text-anchor="middle" x="113" y="-31.3" font-family="Times,serif" font-size="14.00">function:Int::Int(Int &amp;&amp;)</text>
<polyline fill="none" stroke="black" points="189.5,-0.5 189.5,-69.5 "/>
<text text-anchor="middle" x="237.5" y="-54.3" font-family="Times,serif" font-size="14.00">name:tmp_var</text>
<polyline fill="none" stroke="black" points="189.5,-46.5 285.5,-46.5 "/>
<text text-anchor="middle" x="237.5" y="-31.3" font-family="Times,serif" font-size="14.00">value:42</text>
<polyline fill="none" stroke="black" points="189.5,-23.5 285.5,-23.5 "/>
<text text-anchor="middle" x="237.5" y="-8.3" font-family="Times,serif" font-size="14.00">idx:3</text>
<polyline fill="none" stroke="black" points="285.5,-0.5 285.5,-69.5 "/>
<text text-anchor="middle" x="339" y="-31.3" font-family="Times,serif" font-size="14.00">ptr:0x16ba8f110</text>
</g>
<!-- 1&#45;&gt;3 -->
<g id="edge2" class="edge">
<title>1&#45;&gt;3</title>
<path fill="none" stroke="#000000" stroke-dasharray="5,2" d="M214.5,-106.23C214.5,-97.79 214.5,-88.62 214.5,-79.77"/>
<polygon fill="#000000" stroke="#000000" points="218,-79.6 214.5,-69.6 211,-79.6 218,-79.6"/>
</g>
<!-- 2 -->
<g id="node3" class="node">
<title>2</title>
<polygon fill="#add8e6" stroke="black" points="501.5,-212.5 501.5,-281.5 853.5,-281.5 853.5,-212.5 501.5,-212.5"/>
<text text-anchor="middle" x="576.5" y="-243.3" font-family="Times,serif" font-size="14.00">function:Int::Int(int64_t)</text>
<polyline fill="none" stroke="black" points="651.5,-212.5 651.5,-281.5 "/>
<text text-anchor="middle" x="699.5" y="-266.3" font-family="Times,serif" font-size="14.00">name:tmp_var</text>
<polyline fill="none" stroke="black" points="651.5,-258.5 747.5,-258.5 "/>
<text text-anchor="middle" x="699.5" y="-243.3" font-family="Times,serif" font-size="14.00">value:12</text>
<polyline fill="none" stroke="black" points="651.5,-235.5 747.5,-235.5 "/>
<text text-anchor="middle" x="699.5" y="-220.3" font-family="Times,serif" font-size="14.00">idx:2</text>
<polyline fill="none" stroke="black" points="747.5,-212.5 747.5,-281.5 "/>
<text text-anchor="middle" x="800.5" y="-243.3" font-family="Times,serif" font-size="14.00">ptr:0x16ba8f1e0</text>
</g>
<!-- 4 -->
<g id="node5" class="node">
<title>4</title>
<polygon fill="#90ee90" stroke="black" points="499.5,-106.5 499.5,-175.5 855.5,-175.5 855.5,-106.5 499.5,-106.5"/>
<text text-anchor="middle" x="576" y="-137.3" font-family="Times,serif" font-size="14.00">function:Int::Int(Int &amp;&amp;)</text>
<polyline fill="none" stroke="black" points="652.5,-106.5 652.5,-175.5 "/>
<text text-anchor="middle" x="700.5" y="-160.3" font-family="Times,serif" font-size="14.00">name:tmp_var</text>
<polyline fill="none" stroke="black" points="652.5,-152.5 748.5,-152.5 "/>
<text text-anchor="middle" x="700.5" y="-137.3" font-family="Times,serif" font-size="14.00">value:12</text>
<polyline fill="none" stroke="black" points="652.5,-129.5 748.5,-129.5 "/>
<text text-anchor="middle" x="700.5" y="-114.3" font-family="Times,serif" font-size="14.00">idx:4</text>
<polyline fill="none" stroke="black" points="748.5,-106.5 748.5,-175.5 "/>
<text text-anchor="middle" x="802" y="-137.3" font-family="Times,serif" font-size="14.00">ptr:0x16ba8f140</text>
</g>
<!-- 2&#45;&gt;4 -->
<g id="edge3" class="edge">
<title>2&#45;&gt;4</title>
<path fill="none" stroke="#000000" stroke-dasharray="5,2" d="M677.5,-212.23C677.5,-203.79 677.5,-194.62 677.5,-185.77"/>
<polygon fill="#000000" stroke="#000000" points="681,-185.6 677.5,-175.6 674,-185.6 681,-185.6"/>
</g>
</g>
</svg>
