<?xml version="1.0" encoding="UTF-8" standalone="no"?>
<!DOCTYPE svg PUBLIC "-//W3C//DTD SVG 1.1//EN"
 "http://www.w3.org/Graphics/SVG/1.1/DTD/svg11.dtd">
<!-- Generated by graphviz version 2.50.0 (20211204.2007)
 -->
<!-- Title: graph_file Pages: 1 -->
<svg width="1331pt" height="575pt"
 viewBox="0.00 0.00 1331.00 575.00" xmlns="http://www.w3.org/2000/svg" xmlns:xlink="http://www.w3.org/1999/xlink">
<g id="graph0" class="graph" transform="scale(1 1) rotate(0) translate(4 571)">
<title>graph_file</title>
<polygon fill="white" stroke="transparent" points="-4,4 -4,-571 1327,-571 1327,4 -4,4"/>
<!-- 0 -->
<g id="node1" class="node">
<title>0</title>
<polygon fill="#add8e6" stroke="black" points="185,-497.5 185,-566.5 624,-566.5 624,-497.5 185,-497.5"/>
<text text-anchor="middle" x="314.5" y="-528.3" font-family="Times,serif" font-size="14.00">function:Int::Int(const std::string &amp;, int64_t)</text>
<polyline fill="none" stroke="black" points="444,-497.5 444,-566.5 "/>
<text text-anchor="middle" x="479" y="-551.3" font-family="Times,serif" font-size="14.00">name:a</text>
<polyline fill="none" stroke="black" points="444,-543.5 514,-543.5 "/>
<text text-anchor="middle" x="479" y="-528.3" font-family="Times,serif" font-size="14.00">value:500</text>
<polyline fill="none" stroke="black" points="444,-520.5 514,-520.5 "/>
<text text-anchor="middle" x="479" y="-505.3" font-family="Times,serif" font-size="14.00">idx:0</text>
<polyline fill="none" stroke="black" points="514,-497.5 514,-566.5 "/>
<text text-anchor="middle" x="569" y="-528.3" font-family="Times,serif" font-size="14.00">ptr:0x16b18b140</text>
</g>
<!-- 2 -->
<g id="node3" class="node">
<title>2</title>
<polygon fill="#add8e6" stroke="black" points="522.5,-424.5 522.5,-460.5 800.5,-460.5 800.5,-424.5 522.5,-424.5"/>
<text text-anchor="middle" x="661.5" y="-438.8" font-family="Times,serif" font-size="14.00">function:Int operator+(const Int &amp;, const Int &amp;)</text>
</g>
<!-- 0&#45;&gt;2 -->
<g id="edge1" class="edge">
<title>0&#45;&gt;2</title>
<path fill="none" stroke="#000000" stroke-dasharray="1,5" d="M503.13,-497.42C536.32,-486.12 572.33,-473.86 601.61,-463.89"/>
<polygon fill="#000000" stroke="#000000" points="602.93,-467.14 611.27,-460.6 600.68,-460.51 602.93,-467.14"/>
</g>
<!-- 1 -->
<g id="node2" class="node">
<title>1</title>
<polygon fill="#add8e6" stroke="black" points="696.5,-497.5 696.5,-566.5 1142.5,-566.5 1142.5,-497.5 696.5,-497.5"/>
<text text-anchor="middle" x="826" y="-528.3" font-family="Times,serif" font-size="14.00">function:Int::Int(const std::string &amp;, int64_t)</text>
<polyline fill="none" stroke="black" points="955.5,-497.5 955.5,-566.5 "/>
<text text-anchor="middle" x="994" y="-551.3" font-family="Times,serif" font-size="14.00">name:b</text>
<polyline fill="none" stroke="black" points="955.5,-543.5 1032.5,-543.5 "/>
<text text-anchor="middle" x="994" y="-528.3" font-family="Times,serif" font-size="14.00">value:1000</text>
<polyline fill="none" stroke="black" points="955.5,-520.5 1032.5,-520.5 "/>
<text text-anchor="middle" x="994" y="-505.3" font-family="Times,serif" font-size="14.00">idx:1</text>
<polyline fill="none" stroke="black" points="1032.5,-497.5 1032.5,-566.5 "/>
<text text-anchor="middle" x="1087.5" y="-528.3" font-family="Times,serif" font-size="14.00">ptr:0x16b18b1d0</text>
</g>
<!-- 1&#45;&gt;2 -->
<g id="edge2" class="edge">
<title>1&#45;&gt;2</title>
<path fill="none" stroke="#000000" stroke-dasharray="1,5" d="M820.49,-497.42C787.17,-486.12 751.02,-473.86 721.62,-463.89"/>
<polygon fill="#000000" stroke="#000000" points="722.52,-460.5 711.92,-460.6 720.27,-467.13 722.52,-460.5"/>
</g>
<!-- 3 -->
<g id="node4" class="node">
<title>3</title>
<polygon fill="#add8e6" stroke="black" points="484.5,-318.5 484.5,-387.5 838.5,-387.5 838.5,-318.5 484.5,-318.5"/>
<text text-anchor="middle" x="559.5" y="-349.3" font-family="Times,serif" font-size="14.00">function:Int::Int(int64_t)</text>
<polyline fill="none" stroke="black" points="634.5,-318.5 634.5,-387.5 "/>
<text text-anchor="middle" x="682.5" y="-372.3" font-family="Times,serif" font-size="14.00">name:tmp_var</text>
<polyline fill="none" stroke="black" points="634.5,-364.5 730.5,-364.5 "/>
<text text-anchor="middle" x="682.5" y="-349.3" font-family="Times,serif" font-size="14.00">value:1500</text>
<polyline fill="none" stroke="black" points="634.5,-341.5 730.5,-341.5 "/>
<text text-anchor="middle" x="682.5" y="-326.3" font-family="Times,serif" font-size="14.00">idx:2</text>
<polyline fill="none" stroke="black" points="730.5,-318.5 730.5,-387.5 "/>
<text text-anchor="middle" x="784.5" y="-349.3" font-family="Times,serif" font-size="14.00">ptr:0x16b18acd0</text>
</g>
<!-- 2&#45;&gt;3 -->
<g id="edge3" class="edge">
<title>2&#45;&gt;3</title>
<path fill="none" stroke="#000000" stroke-width="2" d="M661.5,-424.21C661.5,-416.53 661.5,-407.11 661.5,-397.69"/>
<polygon fill="#000000" stroke="#000000" stroke-width="2" points="665,-397.55 661.5,-387.55 658,-397.55 665,-397.55"/>
</g>
<!-- 4 -->
<g id="node5" class="node">
<title>4</title>
<polygon fill="#ff0000" stroke="black" points="427.5,-212.5 427.5,-281.5 895.5,-281.5 895.5,-212.5 427.5,-212.5"/>
<text text-anchor="middle" x="569" y="-243.3" font-family="Times,serif" font-size="14.00">function:Int::Int(const std::string &amp;, const Int &amp;)</text>
<polyline fill="none" stroke="black" points="710.5,-212.5 710.5,-281.5 "/>
<text text-anchor="middle" x="749" y="-266.3" font-family="Times,serif" font-size="14.00">name:res</text>
<polyline fill="none" stroke="black" points="710.5,-258.5 787.5,-258.5 "/>
<text text-anchor="middle" x="749" y="-243.3" font-family="Times,serif" font-size="14.00">value:1500</text>
<polyline fill="none" stroke="black" points="710.5,-235.5 787.5,-235.5 "/>
<text text-anchor="middle" x="749" y="-220.3" font-family="Times,serif" font-size="14.00">idx:3</text>
<polyline fill="none" stroke="black" points="787.5,-212.5 787.5,-281.5 "/>
<text text-anchor="middle" x="841.5" y="-243.3" font-family="Times,serif" font-size="14.00">ptr:0x16b18ac40</text>
</g>
<!-- 3&#45;&gt;4 -->
<g id="edge4" class="edge">
<title>3&#45;&gt;4</title>
<path fill="none" stroke="#000000" stroke-dasharray="5,2" d="M661.5,-318.23C661.5,-309.79 661.5,-300.62 661.5,-291.77"/>
<polygon fill="#000000" stroke="#000000" points="665,-291.6 661.5,-281.6 658,-291.6 665,-291.6"/>
</g>
<!-- 6 -->
<g id="node7" class="node">
<title>6</title>
<polygon fill="#add8e6" stroke="black" points="290,-123 290,-159 577,-159 577,-123 290,-123"/>
<text text-anchor="middle" x="433.5" y="-137.3" font-family="Times,serif" font-size="14.00">function:bool operator&gt;(const Int &amp;, const Int &amp;)</text>
</g>
<!-- 4&#45;&gt;6 -->
<g id="edge5" class="edge">
<title>4&#45;&gt;6</title>
<path fill="none" stroke="#000000" stroke-dasharray="1,5" d="M587.79,-212.38C552.42,-196.24 511.11,-177.4 480.14,-163.27"/>
<polygon fill="#000000" stroke="#000000" points="481.43,-160.01 470.88,-159.05 478.52,-166.38 481.43,-160.01"/>
</g>
<!-- 8 -->
<g id="node9" class="node">
<title>8</title>
<polygon fill="#ff0000" stroke="black" points="676,-106.5 676,-175.5 1103,-175.5 1103,-106.5 676,-106.5"/>
<text text-anchor="middle" x="797" y="-137.3" font-family="Times,serif" font-size="14.00">function:Int &amp;Int::operator=(const Int &amp;)</text>
<polyline fill="none" stroke="black" points="918,-106.5 918,-175.5 "/>
<text text-anchor="middle" x="956.5" y="-160.3" font-family="Times,serif" font-size="14.00">name:res</text>
<polyline fill="none" stroke="black" points="918,-152.5 995,-152.5 "/>
<text text-anchor="middle" x="956.5" y="-137.3" font-family="Times,serif" font-size="14.00">value:1000</text>
<polyline fill="none" stroke="black" points="918,-129.5 995,-129.5 "/>
<text text-anchor="middle" x="956.5" y="-114.3" font-family="Times,serif" font-size="14.00">idx:3</text>
<polyline fill="none" stroke="black" points="995,-106.5 995,-175.5 "/>
<text text-anchor="middle" x="1049" y="-137.3" font-family="Times,serif" font-size="14.00">ptr:0x16b18ac40</text>
</g>
<!-- 4&#45;&gt;8 -->
<g id="edge8" class="edge">
<title>4&#45;&gt;8</title>
<path fill="none" stroke="#000000" stroke-width="2" d="M735.21,-212.38C758.07,-201.95 783.4,-190.39 806.83,-179.71"/>
<polygon fill="#000000" stroke="#000000" stroke-width="2" points="808.4,-182.84 816.04,-175.51 805.49,-176.47 808.4,-182.84"/>
</g>
<!-- 5 -->
<g id="node6" class="node">
<title>5</title>
<polygon fill="#add8e6" stroke="black" points="0,-212.5 0,-281.5 355,-281.5 355,-212.5 0,-212.5"/>
<text text-anchor="middle" x="75" y="-243.3" font-family="Times,serif" font-size="14.00">function:Int::Int(int64_t)</text>
<polyline fill="none" stroke="black" points="150,-212.5 150,-281.5 "/>
<text text-anchor="middle" x="198" y="-266.3" font-family="Times,serif" font-size="14.00">name:tmp_var</text>
<polyline fill="none" stroke="black" points="150,-258.5 246,-258.5 "/>
<text text-anchor="middle" x="198" y="-243.3" font-family="Times,serif" font-size="14.00">value:1000</text>
<polyline fill="none" stroke="black" points="150,-235.5 246,-235.5 "/>
<text text-anchor="middle" x="198" y="-220.3" font-family="Times,serif" font-size="14.00">idx:4</text>
<polyline fill="none" stroke="black" points="246,-212.5 246,-281.5 "/>
<text text-anchor="middle" x="300.5" y="-243.3" font-family="Times,serif" font-size="14.00">ptr:0x16b18ad20</text>
</g>
<!-- 5&#45;&gt;6 -->
<g id="edge6" class="edge">
<title>5&#45;&gt;6</title>
<path fill="none" stroke="#000000" stroke-dasharray="1,5" d="M260.26,-212.38C300.32,-196.1 347.16,-177.07 382.03,-162.91"/>
<polygon fill="#000000" stroke="#000000" points="383.59,-166.06 391.53,-159.05 380.95,-159.57 383.59,-166.06"/>
</g>
<!-- 7 -->
<g id="node8" class="node">
<title>7</title>
<polygon fill="#add8e6" stroke="black" points="968,-212.5 968,-281.5 1323,-281.5 1323,-212.5 968,-212.5"/>
<text text-anchor="middle" x="1043" y="-243.3" font-family="Times,serif" font-size="14.00">function:Int::Int(int64_t)</text>
<polyline fill="none" stroke="black" points="1118,-212.5 1118,-281.5 "/>
<text text-anchor="middle" x="1166" y="-266.3" font-family="Times,serif" font-size="14.00">name:tmp_var</text>
<polyline fill="none" stroke="black" points="1118,-258.5 1214,-258.5 "/>
<text text-anchor="middle" x="1166" y="-243.3" font-family="Times,serif" font-size="14.00">value:1000</text>
<polyline fill="none" stroke="black" points="1118,-235.5 1214,-235.5 "/>
<text text-anchor="middle" x="1166" y="-220.3" font-family="Times,serif" font-size="14.00">idx:5</text>
<polyline fill="none" stroke="black" points="1214,-212.5 1214,-281.5 "/>
<text text-anchor="middle" x="1268.5" y="-243.3" font-family="Times,serif" font-size="14.00">ptr:0x16b18ad70</text>
</g>
<!-- 7&#45;&gt;8 -->
<g id="edge7" class="edge">
<title>7&#45;&gt;8</title>
<path fill="none" stroke="#000000" stroke-dasharray="5,2" d="M1062.74,-212.38C1036.73,-201.81 1007.87,-190.09 981.28,-179.29"/>
<polygon fill="#000000" stroke="#000000" points="982.56,-176.03 971.98,-175.51 979.92,-182.51 982.56,-176.03"/>
</g>
<!-- 9 -->
<g id="node10" class="node">
<title>9</title>
<polygon fill="#ff0000" stroke="black" points="699.5,-0.5 699.5,-69.5 1079.5,-69.5 1079.5,-0.5 699.5,-0.5"/>
<text text-anchor="middle" x="786.5" y="-31.3" font-family="Times,serif" font-size="14.00">function:Int::Int(const Int &amp;)</text>
<polyline fill="none" stroke="black" points="873.5,-0.5 873.5,-69.5 "/>
<text text-anchor="middle" x="921.5" y="-54.3" font-family="Times,serif" font-size="14.00">name:tmp_var</text>
<polyline fill="none" stroke="black" points="873.5,-46.5 969.5,-46.5 "/>
<text text-anchor="middle" x="921.5" y="-31.3" font-family="Times,serif" font-size="14.00">value:1000</text>
<polyline fill="none" stroke="black" points="873.5,-23.5 969.5,-23.5 "/>
<text text-anchor="middle" x="921.5" y="-8.3" font-family="Times,serif" font-size="14.00">idx:6</text>
<polyline fill="none" stroke="black" points="969.5,-0.5 969.5,-69.5 "/>
<text text-anchor="middle" x="1024.5" y="-31.3" font-family="Times,serif" font-size="14.00">ptr:0x16b18b260</text>
</g>
<!-- 8&#45;&gt;9 -->
<g id="edge9" class="edge">
<title>8&#45;&gt;9</title>
<path fill="none" stroke="#000000" stroke-dasharray="5,2" d="M889.5,-106.23C889.5,-97.79 889.5,-88.62 889.5,-79.77"/>
<polygon fill="#000000" stroke="#000000" points="893,-79.6 889.5,-69.6 886,-79.6 893,-79.6"/>
</g>
</g>
</svg>
