<?xml version="1.0" encoding="UTF-8" standalone="no"?>
<!DOCTYPE svg PUBLIC "-//W3C//DTD SVG 1.1//EN"
 "http://www.w3.org/Graphics/SVG/1.1/DTD/svg11.dtd">
<!-- Generated by graphviz version 2.50.0 (20211204.2007)
 -->
<!-- Title: graph_file Pages: 1 -->
<svg width="1332pt" height="469pt"
 viewBox="0.00 0.00 1331.50 469.00" xmlns="http://www.w3.org/2000/svg" xmlns:xlink="http://www.w3.org/1999/xlink">
<g id="graph0" class="graph" transform="scale(1 1) rotate(0) translate(4 465)">
<title>graph_file</title>
<polygon fill="white" stroke="transparent" points="-4,4 -4,-465 1327.5,-465 1327.5,4 -4,4"/>
<!-- 0 -->
<g id="node1" class="node">
<title>0</title>
<polygon fill="#add8e6" stroke="black" points="184,-391.5 184,-460.5 623,-460.5 623,-391.5 184,-391.5"/>
<text text-anchor="middle" x="313.5" y="-422.3" font-family="Times,serif" font-size="14.00">function:Int::Int(const std::string &amp;, int64_t)</text>
<polyline fill="none" stroke="black" points="443,-391.5 443,-460.5 "/>
<text text-anchor="middle" x="478" y="-445.3" font-family="Times,serif" font-size="14.00">name:a</text>
<polyline fill="none" stroke="black" points="443,-437.5 513,-437.5 "/>
<text text-anchor="middle" x="478" y="-422.3" font-family="Times,serif" font-size="14.00">value:500</text>
<polyline fill="none" stroke="black" points="443,-414.5 513,-414.5 "/>
<text text-anchor="middle" x="478" y="-399.3" font-family="Times,serif" font-size="14.00">idx:0</text>
<polyline fill="none" stroke="black" points="513,-391.5 513,-460.5 "/>
<text text-anchor="middle" x="568" y="-422.3" font-family="Times,serif" font-size="14.00">ptr:0x16b343140</text>
</g>
<!-- 2 -->
<g id="node3" class="node">
<title>2</title>
<polygon fill="#add8e6" stroke="black" points="521.5,-318.5 521.5,-354.5 799.5,-354.5 799.5,-318.5 521.5,-318.5"/>
<text text-anchor="middle" x="660.5" y="-332.8" font-family="Times,serif" font-size="14.00">function:Int operator+(const Int &amp;, const Int &amp;)</text>
</g>
<!-- 0&#45;&gt;2 -->
<g id="edge1" class="edge">
<title>0&#45;&gt;2</title>
<path fill="none" stroke="#000000" stroke-dasharray="1,5" d="M502.13,-391.42C535.32,-380.12 571.33,-367.86 600.61,-357.89"/>
<polygon fill="#000000" stroke="#000000" points="601.93,-361.14 610.27,-354.6 599.68,-354.51 601.93,-361.14"/>
</g>
<!-- 1 -->
<g id="node2" class="node">
<title>1</title>
<polygon fill="#add8e6" stroke="black" points="695.5,-391.5 695.5,-460.5 1141.5,-460.5 1141.5,-391.5 695.5,-391.5"/>
<text text-anchor="middle" x="825" y="-422.3" font-family="Times,serif" font-size="14.00">function:Int::Int(const std::string &amp;, int64_t)</text>
<polyline fill="none" stroke="black" points="954.5,-391.5 954.5,-460.5 "/>
<text text-anchor="middle" x="993" y="-445.3" font-family="Times,serif" font-size="14.00">name:b</text>
<polyline fill="none" stroke="black" points="954.5,-437.5 1031.5,-437.5 "/>
<text text-anchor="middle" x="993" y="-422.3" font-family="Times,serif" font-size="14.00">value:1000</text>
<polyline fill="none" stroke="black" points="954.5,-414.5 1031.5,-414.5 "/>
<text text-anchor="middle" x="993" y="-399.3" font-family="Times,serif" font-size="14.00">idx:1</text>
<polyline fill="none" stroke="black" points="1031.5,-391.5 1031.5,-460.5 "/>
<text text-anchor="middle" x="1086.5" y="-422.3" font-family="Times,serif" font-size="14.00">ptr:0x16b3431d0</text>
</g>
<!-- 1&#45;&gt;2 -->
<g id="edge2" class="edge">
<title>1&#45;&gt;2</title>
<path fill="none" stroke="#000000" stroke-dasharray="1,5" d="M819.49,-391.42C786.17,-380.12 750.02,-367.86 720.62,-357.89"/>
<polygon fill="#000000" stroke="#000000" points="721.52,-354.5 710.92,-354.6 719.27,-361.13 721.52,-354.5"/>
</g>
<!-- 3 -->
<g id="node4" class="node">
<title>3</title>
<polygon fill="#add8e6" stroke="black" points="483.5,-212.5 483.5,-281.5 837.5,-281.5 837.5,-212.5 483.5,-212.5"/>
<text text-anchor="middle" x="558.5" y="-243.3" font-family="Times,serif" font-size="14.00">function:Int::Int(int64_t)</text>
<polyline fill="none" stroke="black" points="633.5,-212.5 633.5,-281.5 "/>
<text text-anchor="middle" x="681.5" y="-266.3" font-family="Times,serif" font-size="14.00">name:tmp_var</text>
<polyline fill="none" stroke="black" points="633.5,-258.5 729.5,-258.5 "/>
<text text-anchor="middle" x="681.5" y="-243.3" font-family="Times,serif" font-size="14.00">value:1500</text>
<polyline fill="none" stroke="black" points="633.5,-235.5 729.5,-235.5 "/>
<text text-anchor="middle" x="681.5" y="-220.3" font-family="Times,serif" font-size="14.00">idx:2</text>
<polyline fill="none" stroke="black" points="729.5,-212.5 729.5,-281.5 "/>
<text text-anchor="middle" x="783.5" y="-243.3" font-family="Times,serif" font-size="14.00">ptr:0x16b342ca0</text>
</g>
<!-- 2&#45;&gt;3 -->
<g id="edge3" class="edge">
<title>2&#45;&gt;3</title>
<path fill="none" stroke="#000000" stroke-width="2" d="M660.5,-318.21C660.5,-310.53 660.5,-301.11 660.5,-291.69"/>
<polygon fill="#000000" stroke="#000000" stroke-width="2" points="664,-291.55 660.5,-281.55 657,-291.55 664,-291.55"/>
</g>
<!-- 4 -->
<g id="node5" class="node">
<title>4</title>
<polygon fill="#ff0000" stroke="black" points="425.5,-106.5 425.5,-175.5 895.5,-175.5 895.5,-106.5 425.5,-106.5"/>
<text text-anchor="middle" x="567" y="-137.3" font-family="Times,serif" font-size="14.00">function:Int::Int(const std::string &amp;, const Int &amp;)</text>
<polyline fill="none" stroke="black" points="708.5,-106.5 708.5,-175.5 "/>
<text text-anchor="middle" x="747" y="-160.3" font-family="Times,serif" font-size="14.00">name:res</text>
<polyline fill="none" stroke="black" points="708.5,-152.5 785.5,-152.5 "/>
<text text-anchor="middle" x="747" y="-137.3" font-family="Times,serif" font-size="14.00">value:1500</text>
<polyline fill="none" stroke="black" points="708.5,-129.5 785.5,-129.5 "/>
<text text-anchor="middle" x="747" y="-114.3" font-family="Times,serif" font-size="14.00">idx:3</text>
<polyline fill="none" stroke="black" points="785.5,-106.5 785.5,-175.5 "/>
<text text-anchor="middle" x="840.5" y="-137.3" font-family="Times,serif" font-size="14.00">ptr:0x16b343260</text>
</g>
<!-- 3&#45;&gt;4 -->
<g id="edge4" class="edge">
<title>3&#45;&gt;4</title>
<path fill="none" stroke="#000000" stroke-dasharray="5,2" d="M660.5,-212.23C660.5,-203.79 660.5,-194.62 660.5,-185.77"/>
<polygon fill="#000000" stroke="#000000" points="664,-185.6 660.5,-175.6 657,-185.6 664,-185.6"/>
</g>
<!-- 6 -->
<g id="node7" class="node">
<title>6</title>
<polygon fill="#add8e6" stroke="black" points="288,-17 288,-53 575,-53 575,-17 288,-17"/>
<text text-anchor="middle" x="431.5" y="-31.3" font-family="Times,serif" font-size="14.00">function:bool operator&gt;(const Int &amp;, const Int &amp;)</text>
</g>
<!-- 4&#45;&gt;6 -->
<g id="edge5" class="edge">
<title>4&#45;&gt;6</title>
<path fill="none" stroke="#000000" stroke-dasharray="1,5" d="M586.47,-106.38C550.94,-90.24 509.45,-71.4 478.34,-57.27"/>
<polygon fill="#000000" stroke="#000000" points="479.59,-54 469.04,-53.05 476.7,-60.37 479.59,-54"/>
</g>
<!-- 8 -->
<g id="node9" class="node">
<title>8</title>
<polygon fill="#ff0000" stroke="black" points="674,-0.5 674,-69.5 1103,-69.5 1103,-0.5 674,-0.5"/>
<text text-anchor="middle" x="795" y="-31.3" font-family="Times,serif" font-size="14.00">function:Int &amp;Int::operator=(const Int &amp;)</text>
<polyline fill="none" stroke="black" points="916,-0.5 916,-69.5 "/>
<text text-anchor="middle" x="954.5" y="-54.3" font-family="Times,serif" font-size="14.00">name:res</text>
<polyline fill="none" stroke="black" points="916,-46.5 993,-46.5 "/>
<text text-anchor="middle" x="954.5" y="-31.3" font-family="Times,serif" font-size="14.00">value:1000</text>
<polyline fill="none" stroke="black" points="916,-23.5 993,-23.5 "/>
<text text-anchor="middle" x="954.5" y="-8.3" font-family="Times,serif" font-size="14.00">idx:3</text>
<polyline fill="none" stroke="black" points="993,-0.5 993,-69.5 "/>
<text text-anchor="middle" x="1048" y="-31.3" font-family="Times,serif" font-size="14.00">ptr:0x16b343260</text>
</g>
<!-- 4&#45;&gt;8 -->
<g id="edge8" class="edge">
<title>4&#45;&gt;8</title>
<path fill="none" stroke="#000000" stroke-width="2" d="M734.21,-106.38C757.07,-95.95 782.4,-84.39 805.83,-73.71"/>
<polygon fill="#000000" stroke="#000000" stroke-width="2" points="807.4,-76.84 815.04,-69.51 804.49,-70.47 807.4,-76.84"/>
</g>
<!-- 5 -->
<g id="node6" class="node">
<title>5</title>
<polygon fill="#add8e6" stroke="black" points="0,-106.5 0,-175.5 353,-175.5 353,-106.5 0,-106.5"/>
<text text-anchor="middle" x="75" y="-137.3" font-family="Times,serif" font-size="14.00">function:Int::Int(int64_t)</text>
<polyline fill="none" stroke="black" points="150,-106.5 150,-175.5 "/>
<text text-anchor="middle" x="198" y="-160.3" font-family="Times,serif" font-size="14.00">name:tmp_var</text>
<polyline fill="none" stroke="black" points="150,-152.5 246,-152.5 "/>
<text text-anchor="middle" x="198" y="-137.3" font-family="Times,serif" font-size="14.00">value:1000</text>
<polyline fill="none" stroke="black" points="150,-129.5 246,-129.5 "/>
<text text-anchor="middle" x="198" y="-114.3" font-family="Times,serif" font-size="14.00">idx:4</text>
<polyline fill="none" stroke="black" points="246,-106.5 246,-175.5 "/>
<text text-anchor="middle" x="299.5" y="-137.3" font-family="Times,serif" font-size="14.00">ptr:0x16b342cf0</text>
</g>
<!-- 5&#45;&gt;6 -->
<g id="edge6" class="edge">
<title>5&#45;&gt;6</title>
<path fill="none" stroke="#000000" stroke-dasharray="1,5" d="M258.94,-106.38C298.84,-90.1 345.5,-71.07 380.23,-56.91"/>
<polygon fill="#000000" stroke="#000000" points="381.76,-60.07 389.7,-53.05 379.12,-53.58 381.76,-60.07"/>
</g>
<!-- 7 -->
<g id="node8" class="node">
<title>7</title>
<polygon fill="#add8e6" stroke="black" points="967.5,-106.5 967.5,-175.5 1323.5,-175.5 1323.5,-106.5 967.5,-106.5"/>
<text text-anchor="middle" x="1042.5" y="-137.3" font-family="Times,serif" font-size="14.00">function:Int::Int(int64_t)</text>
<polyline fill="none" stroke="black" points="1117.5,-106.5 1117.5,-175.5 "/>
<text text-anchor="middle" x="1165.5" y="-160.3" font-family="Times,serif" font-size="14.00">name:tmp_var</text>
<polyline fill="none" stroke="black" points="1117.5,-152.5 1213.5,-152.5 "/>
<text text-anchor="middle" x="1165.5" y="-137.3" font-family="Times,serif" font-size="14.00">value:1000</text>
<polyline fill="none" stroke="black" points="1117.5,-129.5 1213.5,-129.5 "/>
<text text-anchor="middle" x="1165.5" y="-114.3" font-family="Times,serif" font-size="14.00">idx:5</text>
<polyline fill="none" stroke="black" points="1213.5,-106.5 1213.5,-175.5 "/>
<text text-anchor="middle" x="1268.5" y="-137.3" font-family="Times,serif" font-size="14.00">ptr:0x16b342d40</text>
</g>
<!-- 7&#45;&gt;8 -->
<g id="edge7" class="edge">
<title>7&#45;&gt;8</title>
<path fill="none" stroke="#000000" stroke-dasharray="5,2" d="M1062.41,-106.38C1036.31,-95.81 1007.33,-84.09 980.64,-73.29"/>
<polygon fill="#000000" stroke="#000000" points="981.88,-70.01 971.3,-69.51 979.26,-76.5 981.88,-70.01"/>
</g>
</g>
</svg>
