<?xml version="1.0" encoding="UTF-8" standalone="no"?>
<!DOCTYPE svg PUBLIC "-//W3C//DTD SVG 1.1//EN"
 "http://www.w3.org/Graphics/SVG/1.1/DTD/svg11.dtd">
<!-- Generated by graphviz version 2.50.0 (20211204.2007)
 -->
<!-- Title: graph_file Pages: 1 -->
<svg width="1304pt" height="469pt"
 viewBox="0.00 0.00 1303.50 469.00" xmlns="http://www.w3.org/2000/svg" xmlns:xlink="http://www.w3.org/1999/xlink">
<g id="graph0" class="graph" transform="scale(1 1) rotate(0) translate(4 465)">
<title>graph_file</title>
<polygon fill="white" stroke="transparent" points="-4,4 -4,-465 1299.5,-465 1299.5,4 -4,4"/>
<!-- 0 -->
<g id="node1" class="node">
<title>0</title>
<polygon fill="#add8e6" stroke="black" points="172.5,-391.5 172.5,-460.5 608.5,-460.5 608.5,-391.5 172.5,-391.5"/>
<text text-anchor="middle" x="302" y="-422.3" font-family="Times,serif" font-size="14.00">function:Int::Int(const std::string &amp;, int64_t)</text>
<polyline fill="none" stroke="black" points="431.5,-391.5 431.5,-460.5 "/>
<text text-anchor="middle" x="466.5" y="-445.3" font-family="Times,serif" font-size="14.00">name:a</text>
<polyline fill="none" stroke="black" points="431.5,-437.5 501.5,-437.5 "/>
<text text-anchor="middle" x="466.5" y="-422.3" font-family="Times,serif" font-size="14.00">value:500</text>
<polyline fill="none" stroke="black" points="431.5,-414.5 501.5,-414.5 "/>
<text text-anchor="middle" x="466.5" y="-399.3" font-family="Times,serif" font-size="14.00">idx:0</text>
<polyline fill="none" stroke="black" points="501.5,-391.5 501.5,-460.5 "/>
<text text-anchor="middle" x="555" y="-422.3" font-family="Times,serif" font-size="14.00">ptr:0x16d6cf140</text>
</g>
<!-- 2 -->
<g id="node3" class="node">
<title>2</title>
<polygon fill="#add8e6" stroke="black" points="507.5,-318.5 507.5,-354.5 785.5,-354.5 785.5,-318.5 507.5,-318.5"/>
<text text-anchor="middle" x="646.5" y="-332.8" font-family="Times,serif" font-size="14.00">function:Int operator+(const Int &amp;, const Int &amp;)</text>
</g>
<!-- 0&#45;&gt;2 -->
<g id="edge1" class="edge">
<title>0&#45;&gt;2</title>
<path fill="none" stroke="#000000" stroke-dasharray="1,5" d="M488.74,-391.42C521.81,-380.12 557.68,-367.86 586.84,-357.89"/>
<polygon fill="#000000" stroke="#000000" points="588.14,-361.15 596.47,-354.6 585.87,-354.52 588.14,-361.15"/>
</g>
<!-- 1 -->
<g id="node2" class="node">
<title>1</title>
<polygon fill="#add8e6" stroke="black" points="681,-391.5 681,-460.5 1124,-460.5 1124,-391.5 681,-391.5"/>
<text text-anchor="middle" x="810.5" y="-422.3" font-family="Times,serif" font-size="14.00">function:Int::Int(const std::string &amp;, int64_t)</text>
<polyline fill="none" stroke="black" points="940,-391.5 940,-460.5 "/>
<text text-anchor="middle" x="978.5" y="-445.3" font-family="Times,serif" font-size="14.00">name:b</text>
<polyline fill="none" stroke="black" points="940,-437.5 1017,-437.5 "/>
<text text-anchor="middle" x="978.5" y="-422.3" font-family="Times,serif" font-size="14.00">value:1000</text>
<polyline fill="none" stroke="black" points="940,-414.5 1017,-414.5 "/>
<text text-anchor="middle" x="978.5" y="-399.3" font-family="Times,serif" font-size="14.00">idx:1</text>
<polyline fill="none" stroke="black" points="1017,-391.5 1017,-460.5 "/>
<text text-anchor="middle" x="1070.5" y="-422.3" font-family="Times,serif" font-size="14.00">ptr:0x16d6cf1d0</text>
</g>
<!-- 1&#45;&gt;2 -->
<g id="edge2" class="edge">
<title>1&#45;&gt;2</title>
<path fill="none" stroke="#000000" stroke-dasharray="1,5" d="M804.26,-391.42C771.19,-380.12 735.32,-367.86 706.16,-357.89"/>
<polygon fill="#000000" stroke="#000000" points="707.13,-354.52 696.53,-354.6 704.86,-361.15 707.13,-354.52"/>
</g>
<!-- 3 -->
<g id="node4" class="node">
<title>3</title>
<polygon fill="#add8e6" stroke="black" points="470,-212.5 470,-281.5 823,-281.5 823,-212.5 470,-212.5"/>
<text text-anchor="middle" x="545" y="-243.3" font-family="Times,serif" font-size="14.00">function:Int::Int(int64_t)</text>
<polyline fill="none" stroke="black" points="620,-212.5 620,-281.5 "/>
<text text-anchor="middle" x="668" y="-266.3" font-family="Times,serif" font-size="14.00">name:tmp_var</text>
<polyline fill="none" stroke="black" points="620,-258.5 716,-258.5 "/>
<text text-anchor="middle" x="668" y="-243.3" font-family="Times,serif" font-size="14.00">value:1500</text>
<polyline fill="none" stroke="black" points="620,-235.5 716,-235.5 "/>
<text text-anchor="middle" x="668" y="-220.3" font-family="Times,serif" font-size="14.00">idx:2</text>
<polyline fill="none" stroke="black" points="716,-212.5 716,-281.5 "/>
<text text-anchor="middle" x="769.5" y="-243.3" font-family="Times,serif" font-size="14.00">ptr:0x16d6ceca0</text>
</g>
<!-- 2&#45;&gt;3 -->
<g id="edge3" class="edge">
<title>2&#45;&gt;3</title>
<path fill="none" stroke="#000000" stroke-width="2" d="M646.5,-318.21C646.5,-310.53 646.5,-301.11 646.5,-291.69"/>
<polygon fill="#000000" stroke="#000000" stroke-width="2" points="650,-291.55 646.5,-281.55 643,-291.55 650,-291.55"/>
</g>
<!-- 4 -->
<g id="node5" class="node">
<title>4</title>
<polygon fill="#90ee90" stroke="black" points="423.5,-106.5 423.5,-175.5 869.5,-175.5 869.5,-106.5 423.5,-106.5"/>
<text text-anchor="middle" x="554.5" y="-137.3" font-family="Times,serif" font-size="14.00">function:Int::Int(const std::string &amp;, Int &amp;&amp;)</text>
<polyline fill="none" stroke="black" points="685.5,-106.5 685.5,-175.5 "/>
<text text-anchor="middle" x="724" y="-160.3" font-family="Times,serif" font-size="14.00">name:res</text>
<polyline fill="none" stroke="black" points="685.5,-152.5 762.5,-152.5 "/>
<text text-anchor="middle" x="724" y="-137.3" font-family="Times,serif" font-size="14.00">value:1500</text>
<polyline fill="none" stroke="black" points="685.5,-129.5 762.5,-129.5 "/>
<text text-anchor="middle" x="724" y="-114.3" font-family="Times,serif" font-size="14.00">idx:3</text>
<polyline fill="none" stroke="black" points="762.5,-106.5 762.5,-175.5 "/>
<text text-anchor="middle" x="816" y="-137.3" font-family="Times,serif" font-size="14.00">ptr:0x16d6cf260</text>
</g>
<!-- 3&#45;&gt;4 -->
<g id="edge4" class="edge">
<title>3&#45;&gt;4</title>
<path fill="none" stroke="#000000" stroke-dasharray="5,2" d="M646.5,-212.23C646.5,-203.79 646.5,-194.62 646.5,-185.77"/>
<polygon fill="#000000" stroke="#000000" points="650,-185.6 646.5,-175.6 643,-185.6 650,-185.6"/>
</g>
<!-- 6 -->
<g id="node7" class="node">
<title>6</title>
<polygon fill="#add8e6" stroke="black" points="281,-17 281,-53 568,-53 568,-17 281,-17"/>
<text text-anchor="middle" x="424.5" y="-31.3" font-family="Times,serif" font-size="14.00">function:bool operator&gt;(const Int &amp;, const Int &amp;)</text>
</g>
<!-- 4&#45;&gt;6 -->
<g id="edge5" class="edge">
<title>4&#45;&gt;6</title>
<path fill="none" stroke="#000000" stroke-dasharray="1,5" d="M574.73,-106.38C540.44,-90.31 500.41,-71.56 470.3,-57.46"/>
<polygon fill="#000000" stroke="#000000" points="471.43,-54.12 460.89,-53.05 468.46,-60.46 471.43,-54.12"/>
</g>
<!-- 8 -->
<g id="node9" class="node">
<title>8</title>
<polygon fill="#90ee90" stroke="black" points="666,-0.5 666,-69.5 1071,-69.5 1071,-0.5 666,-0.5"/>
<text text-anchor="middle" x="776.5" y="-31.3" font-family="Times,serif" font-size="14.00">function:Int &amp;Int::operator=(Int &amp;&amp;)</text>
<polyline fill="none" stroke="black" points="887,-0.5 887,-69.5 "/>
<text text-anchor="middle" x="925.5" y="-54.3" font-family="Times,serif" font-size="14.00">name:res</text>
<polyline fill="none" stroke="black" points="887,-46.5 964,-46.5 "/>
<text text-anchor="middle" x="925.5" y="-31.3" font-family="Times,serif" font-size="14.00">value:1000</text>
<polyline fill="none" stroke="black" points="887,-23.5 964,-23.5 "/>
<text text-anchor="middle" x="925.5" y="-8.3" font-family="Times,serif" font-size="14.00">idx:3</text>
<polyline fill="none" stroke="black" points="964,-0.5 964,-69.5 "/>
<text text-anchor="middle" x="1017.5" y="-31.3" font-family="Times,serif" font-size="14.00">ptr:0x16d6cf260</text>
</g>
<!-- 4&#45;&gt;8 -->
<g id="edge8" class="edge">
<title>4&#45;&gt;8</title>
<path fill="none" stroke="#000000" stroke-width="2" d="M718.27,-106.38C740.43,-96 764.98,-84.5 787.7,-73.85"/>
<polygon fill="#000000" stroke="#000000" stroke-width="2" points="789.41,-76.92 796.98,-69.51 786.44,-70.58 789.41,-76.92"/>
</g>
<!-- 5 -->
<g id="node6" class="node">
<title>5</title>
<polygon fill="#add8e6" stroke="black" points="0,-106.5 0,-175.5 351,-175.5 351,-106.5 0,-106.5"/>
<text text-anchor="middle" x="75" y="-137.3" font-family="Times,serif" font-size="14.00">function:Int::Int(int64_t)</text>
<polyline fill="none" stroke="black" points="150,-106.5 150,-175.5 "/>
<text text-anchor="middle" x="198" y="-160.3" font-family="Times,serif" font-size="14.00">name:tmp_var</text>
<polyline fill="none" stroke="black" points="150,-152.5 246,-152.5 "/>
<text text-anchor="middle" x="198" y="-137.3" font-family="Times,serif" font-size="14.00">value:1000</text>
<polyline fill="none" stroke="black" points="150,-129.5 246,-129.5 "/>
<text text-anchor="middle" x="198" y="-114.3" font-family="Times,serif" font-size="14.00">idx:4</text>
<polyline fill="none" stroke="black" points="246,-106.5 246,-175.5 "/>
<text text-anchor="middle" x="298.5" y="-137.3" font-family="Times,serif" font-size="14.00">ptr:0x16d6cecf0</text>
</g>
<!-- 5&#45;&gt;6 -->
<g id="edge6" class="edge">
<title>5&#45;&gt;6</title>
<path fill="none" stroke="#000000" stroke-dasharray="1,5" d="M256,-106.38C294.96,-90.1 340.52,-71.07 374.44,-56.91"/>
<polygon fill="#000000" stroke="#000000" points="375.8,-60.13 383.68,-53.05 373.1,-53.67 375.8,-60.13"/>
</g>
<!-- 7 -->
<g id="node8" class="node">
<title>7</title>
<polygon fill="#add8e6" stroke="black" points="941.5,-106.5 941.5,-175.5 1295.5,-175.5 1295.5,-106.5 941.5,-106.5"/>
<text text-anchor="middle" x="1016.5" y="-137.3" font-family="Times,serif" font-size="14.00">function:Int::Int(int64_t)</text>
<polyline fill="none" stroke="black" points="1091.5,-106.5 1091.5,-175.5 "/>
<text text-anchor="middle" x="1139.5" y="-160.3" font-family="Times,serif" font-size="14.00">name:tmp_var</text>
<polyline fill="none" stroke="black" points="1091.5,-152.5 1187.5,-152.5 "/>
<text text-anchor="middle" x="1139.5" y="-137.3" font-family="Times,serif" font-size="14.00">value:1000</text>
<polyline fill="none" stroke="black" points="1091.5,-129.5 1187.5,-129.5 "/>
<text text-anchor="middle" x="1139.5" y="-114.3" font-family="Times,serif" font-size="14.00">idx:5</text>
<polyline fill="none" stroke="black" points="1187.5,-106.5 1187.5,-175.5 "/>
<text text-anchor="middle" x="1241.5" y="-137.3" font-family="Times,serif" font-size="14.00">ptr:0x16d6ced40</text>
</g>
<!-- 7&#45;&gt;8 -->
<g id="edge7" class="edge">
<title>7&#45;&gt;8</title>
<path fill="none" stroke="#000000" stroke-dasharray="5,2" d="M1037.68,-106.38C1012.39,-95.86 984.34,-84.19 958.47,-73.43"/>
<polygon fill="#000000" stroke="#000000" points="959.62,-70.12 949.04,-69.51 956.93,-76.58 959.62,-70.12"/>
</g>
</g>
</svg>
