<?xml version="1.0" encoding="UTF-8" standalone="no"?>
<!DOCTYPE svg PUBLIC "-//W3C//DTD SVG 1.1//EN"
 "http://www.w3.org/Graphics/SVG/1.1/DTD/svg11.dtd">
<!-- Generated by graphviz version 2.50.0 (20211204.2007)
 -->
<!-- Title: graph_file Pages: 1 -->
<svg width="1309pt" height="469pt"
 viewBox="0.00 0.00 1308.50 469.00" xmlns="http://www.w3.org/2000/svg" xmlns:xlink="http://www.w3.org/1999/xlink">
<g id="graph0" class="graph" transform="scale(1 1) rotate(0) translate(4 465)">
<title>graph_file</title>
<polygon fill="white" stroke="transparent" points="-4,4 -4,-465 1304.5,-465 1304.5,4 -4,4"/>
<!-- 0 -->
<g id="node1" class="node">
<title>0</title>
<polygon fill="#add8e6" stroke="black" points="172.5,-391.5 172.5,-460.5 611.5,-460.5 611.5,-391.5 172.5,-391.5"/>
<text text-anchor="middle" x="302" y="-422.3" font-family="Times,serif" font-size="14.00">function:Int::Int(const std::string &amp;, int64_t)</text>
<polyline fill="none" stroke="black" points="431.5,-391.5 431.5,-460.5 "/>
<text text-anchor="middle" x="466.5" y="-445.3" font-family="Times,serif" font-size="14.00">name:a</text>
<polyline fill="none" stroke="black" points="431.5,-437.5 501.5,-437.5 "/>
<text text-anchor="middle" x="466.5" y="-422.3" font-family="Times,serif" font-size="14.00">value:500</text>
<polyline fill="none" stroke="black" points="431.5,-414.5 501.5,-414.5 "/>
<text text-anchor="middle" x="466.5" y="-399.3" font-family="Times,serif" font-size="14.00">idx:0</text>
<polyline fill="none" stroke="black" points="501.5,-391.5 501.5,-460.5 "/>
<text text-anchor="middle" x="556.5" y="-422.3" font-family="Times,serif" font-size="14.00">ptr:0x16b46b140</text>
</g>
<!-- 2 -->
<g id="node3" class="node">
<title>2</title>
<polygon fill="#add8e6" stroke="black" points="510,-318.5 510,-354.5 788,-354.5 788,-318.5 510,-318.5"/>
<text text-anchor="middle" x="649" y="-332.8" font-family="Times,serif" font-size="14.00">function:Int operator+(const Int &amp;, const Int &amp;)</text>
</g>
<!-- 0&#45;&gt;2 -->
<g id="edge1" class="edge">
<title>0&#45;&gt;2</title>
<path fill="none" stroke="#000000" stroke-dasharray="1,5" d="M490.63,-391.42C523.82,-380.12 559.83,-367.86 589.11,-357.89"/>
<polygon fill="#000000" stroke="#000000" points="590.43,-361.14 598.77,-354.6 588.18,-354.51 590.43,-361.14"/>
</g>
<!-- 1 -->
<g id="node2" class="node">
<title>1</title>
<polygon fill="#add8e6" stroke="black" points="684,-391.5 684,-460.5 1130,-460.5 1130,-391.5 684,-391.5"/>
<text text-anchor="middle" x="813.5" y="-422.3" font-family="Times,serif" font-size="14.00">function:Int::Int(const std::string &amp;, int64_t)</text>
<polyline fill="none" stroke="black" points="943,-391.5 943,-460.5 "/>
<text text-anchor="middle" x="981.5" y="-445.3" font-family="Times,serif" font-size="14.00">name:b</text>
<polyline fill="none" stroke="black" points="943,-437.5 1020,-437.5 "/>
<text text-anchor="middle" x="981.5" y="-422.3" font-family="Times,serif" font-size="14.00">value:1000</text>
<polyline fill="none" stroke="black" points="943,-414.5 1020,-414.5 "/>
<text text-anchor="middle" x="981.5" y="-399.3" font-family="Times,serif" font-size="14.00">idx:1</text>
<polyline fill="none" stroke="black" points="1020,-391.5 1020,-460.5 "/>
<text text-anchor="middle" x="1075" y="-422.3" font-family="Times,serif" font-size="14.00">ptr:0x16b46b1d0</text>
</g>
<!-- 1&#45;&gt;2 -->
<g id="edge2" class="edge">
<title>1&#45;&gt;2</title>
<path fill="none" stroke="#000000" stroke-dasharray="1,5" d="M807.99,-391.42C774.67,-380.12 738.52,-367.86 709.12,-357.89"/>
<polygon fill="#000000" stroke="#000000" points="710.02,-354.5 699.42,-354.6 707.77,-361.13 710.02,-354.5"/>
</g>
<!-- 3 -->
<g id="node4" class="node">
<title>3</title>
<polygon fill="#add8e6" stroke="black" points="472.5,-212.5 472.5,-281.5 825.5,-281.5 825.5,-212.5 472.5,-212.5"/>
<text text-anchor="middle" x="547.5" y="-243.3" font-family="Times,serif" font-size="14.00">function:Int::Int(int64_t)</text>
<polyline fill="none" stroke="black" points="622.5,-212.5 622.5,-281.5 "/>
<text text-anchor="middle" x="670.5" y="-266.3" font-family="Times,serif" font-size="14.00">name:tmp_var</text>
<polyline fill="none" stroke="black" points="622.5,-258.5 718.5,-258.5 "/>
<text text-anchor="middle" x="670.5" y="-243.3" font-family="Times,serif" font-size="14.00">value:1500</text>
<polyline fill="none" stroke="black" points="622.5,-235.5 718.5,-235.5 "/>
<text text-anchor="middle" x="670.5" y="-220.3" font-family="Times,serif" font-size="14.00">idx:2</text>
<polyline fill="none" stroke="black" points="718.5,-212.5 718.5,-281.5 "/>
<text text-anchor="middle" x="772" y="-243.3" font-family="Times,serif" font-size="14.00">ptr:0x16b46aca0</text>
</g>
<!-- 2&#45;&gt;3 -->
<g id="edge3" class="edge">
<title>2&#45;&gt;3</title>
<path fill="none" stroke="#000000" stroke-width="2" d="M649,-318.21C649,-310.53 649,-301.11 649,-291.69"/>
<polygon fill="#000000" stroke="#000000" stroke-width="2" points="652.5,-291.55 649,-281.55 645.5,-291.55 652.5,-291.55"/>
</g>
<!-- 4 -->
<g id="node5" class="node">
<title>4</title>
<polygon fill="#90ee90" stroke="black" points="424.5,-106.5 424.5,-175.5 873.5,-175.5 873.5,-106.5 424.5,-106.5"/>
<text text-anchor="middle" x="555.5" y="-137.3" font-family="Times,serif" font-size="14.00">function:Int::Int(const std::string &amp;, Int &amp;&amp;)</text>
<polyline fill="none" stroke="black" points="686.5,-106.5 686.5,-175.5 "/>
<text text-anchor="middle" x="725" y="-160.3" font-family="Times,serif" font-size="14.00">name:res</text>
<polyline fill="none" stroke="black" points="686.5,-152.5 763.5,-152.5 "/>
<text text-anchor="middle" x="725" y="-137.3" font-family="Times,serif" font-size="14.00">value:1500</text>
<polyline fill="none" stroke="black" points="686.5,-129.5 763.5,-129.5 "/>
<text text-anchor="middle" x="725" y="-114.3" font-family="Times,serif" font-size="14.00">idx:3</text>
<polyline fill="none" stroke="black" points="763.5,-106.5 763.5,-175.5 "/>
<text text-anchor="middle" x="818.5" y="-137.3" font-family="Times,serif" font-size="14.00">ptr:0x16b46b260</text>
</g>
<!-- 3&#45;&gt;4 -->
<g id="edge4" class="edge">
<title>3&#45;&gt;4</title>
<path fill="none" stroke="#000000" stroke-dasharray="5,2" d="M649,-212.23C649,-203.79 649,-194.62 649,-185.77"/>
<polygon fill="#000000" stroke="#000000" points="652.5,-185.6 649,-175.6 645.5,-185.6 652.5,-185.6"/>
</g>
<!-- 6 -->
<g id="node7" class="node">
<title>6</title>
<polygon fill="#add8e6" stroke="black" points="282.5,-17 282.5,-53 569.5,-53 569.5,-17 282.5,-17"/>
<text text-anchor="middle" x="426" y="-31.3" font-family="Times,serif" font-size="14.00">function:bool operator&gt;(const Int &amp;, const Int &amp;)</text>
</g>
<!-- 4&#45;&gt;6 -->
<g id="edge5" class="edge">
<title>4&#45;&gt;6</title>
<path fill="none" stroke="#000000" stroke-dasharray="1,5" d="M576.91,-106.38C542.46,-90.31 502.25,-71.56 472.01,-57.46"/>
<polygon fill="#000000" stroke="#000000" points="473.1,-54.1 462.56,-53.05 470.14,-60.45 473.1,-54.1"/>
</g>
<!-- 8 -->
<g id="node9" class="node">
<title>8</title>
<polygon fill="#90ee90" stroke="black" points="668,-0.5 668,-69.5 1076,-69.5 1076,-0.5 668,-0.5"/>
<text text-anchor="middle" x="778.5" y="-31.3" font-family="Times,serif" font-size="14.00">function:Int &amp;Int::operator=(Int &amp;&amp;)</text>
<polyline fill="none" stroke="black" points="889,-0.5 889,-69.5 "/>
<text text-anchor="middle" x="927.5" y="-54.3" font-family="Times,serif" font-size="14.00">name:res</text>
<polyline fill="none" stroke="black" points="889,-46.5 966,-46.5 "/>
<text text-anchor="middle" x="927.5" y="-31.3" font-family="Times,serif" font-size="14.00">value:1000</text>
<polyline fill="none" stroke="black" points="889,-23.5 966,-23.5 "/>
<text text-anchor="middle" x="927.5" y="-8.3" font-family="Times,serif" font-size="14.00">idx:3</text>
<polyline fill="none" stroke="black" points="966,-0.5 966,-69.5 "/>
<text text-anchor="middle" x="1021" y="-31.3" font-family="Times,serif" font-size="14.00">ptr:0x16b46b260</text>
</g>
<!-- 4&#45;&gt;8 -->
<g id="edge8" class="edge">
<title>4&#45;&gt;8</title>
<path fill="none" stroke="#000000" stroke-width="2" d="M721.09,-106.38C743.35,-96 768.01,-84.5 790.84,-73.85"/>
<polygon fill="#000000" stroke="#000000" stroke-width="2" points="792.57,-76.91 800.15,-69.51 789.61,-70.56 792.57,-76.91"/>
</g>
<!-- 5 -->
<g id="node6" class="node">
<title>5</title>
<polygon fill="#add8e6" stroke="black" points="0,-106.5 0,-175.5 352,-175.5 352,-106.5 0,-106.5"/>
<text text-anchor="middle" x="75" y="-137.3" font-family="Times,serif" font-size="14.00">function:Int::Int(int64_t)</text>
<polyline fill="none" stroke="black" points="150,-106.5 150,-175.5 "/>
<text text-anchor="middle" x="198" y="-160.3" font-family="Times,serif" font-size="14.00">name:tmp_var</text>
<polyline fill="none" stroke="black" points="150,-152.5 246,-152.5 "/>
<text text-anchor="middle" x="198" y="-137.3" font-family="Times,serif" font-size="14.00">value:1000</text>
<polyline fill="none" stroke="black" points="150,-129.5 246,-129.5 "/>
<text text-anchor="middle" x="198" y="-114.3" font-family="Times,serif" font-size="14.00">idx:4</text>
<polyline fill="none" stroke="black" points="246,-106.5 246,-175.5 "/>
<text text-anchor="middle" x="299" y="-137.3" font-family="Times,serif" font-size="14.00">ptr:0x16b46acf0</text>
</g>
<!-- 5&#45;&gt;6 -->
<g id="edge6" class="edge">
<title>5&#45;&gt;6</title>
<path fill="none" stroke="#000000" stroke-dasharray="1,5" d="M256.82,-106.38C295.94,-90.1 341.69,-71.07 375.74,-56.91"/>
<polygon fill="#000000" stroke="#000000" points="377.13,-60.12 385.02,-53.05 374.44,-53.66 377.13,-60.12"/>
</g>
<!-- 7 -->
<g id="node8" class="node">
<title>7</title>
<polygon fill="#add8e6" stroke="black" points="945.5,-106.5 945.5,-175.5 1300.5,-175.5 1300.5,-106.5 945.5,-106.5"/>
<text text-anchor="middle" x="1020.5" y="-137.3" font-family="Times,serif" font-size="14.00">function:Int::Int(int64_t)</text>
<polyline fill="none" stroke="black" points="1095.5,-106.5 1095.5,-175.5 "/>
<text text-anchor="middle" x="1143.5" y="-160.3" font-family="Times,serif" font-size="14.00">name:tmp_var</text>
<polyline fill="none" stroke="black" points="1095.5,-152.5 1191.5,-152.5 "/>
<text text-anchor="middle" x="1143.5" y="-137.3" font-family="Times,serif" font-size="14.00">value:1000</text>
<polyline fill="none" stroke="black" points="1095.5,-129.5 1191.5,-129.5 "/>
<text text-anchor="middle" x="1143.5" y="-114.3" font-family="Times,serif" font-size="14.00">idx:5</text>
<polyline fill="none" stroke="black" points="1191.5,-106.5 1191.5,-175.5 "/>
<text text-anchor="middle" x="1246" y="-137.3" font-family="Times,serif" font-size="14.00">ptr:0x16b46ad40</text>
</g>
<!-- 7&#45;&gt;8 -->
<g id="edge7" class="edge">
<title>7&#45;&gt;8</title>
<path fill="none" stroke="#000000" stroke-dasharray="5,2" d="M1041.85,-106.38C1016.47,-95.86 988.31,-84.19 962.33,-73.43"/>
<polygon fill="#000000" stroke="#000000" points="963.44,-70.1 952.87,-69.51 960.77,-76.57 963.44,-70.1"/>
</g>
</g>
</svg>
