<?xml version="1.0" encoding="UTF-8" standalone="no"?>
<!DOCTYPE svg PUBLIC "-//W3C//DTD SVG 1.1//EN"
 "http://www.w3.org/Graphics/SVG/1.1/DTD/svg11.dtd">
<!-- Generated by graphviz version 2.50.0 (20211204.2007)
 -->
<!-- Title: graph_file Pages: 1 -->
<svg width="1309pt" height="575pt"
 viewBox="0.00 0.00 1309.00 575.00" xmlns="http://www.w3.org/2000/svg" xmlns:xlink="http://www.w3.org/1999/xlink">
<g id="graph0" class="graph" transform="scale(1 1) rotate(0) translate(4 571)">
<title>graph_file</title>
<polygon fill="white" stroke="transparent" points="-4,4 -4,-571 1305,-571 1305,4 -4,4"/>
<!-- 0 -->
<g id="node1" class="node">
<title>0</title>
<polygon fill="#add8e6" stroke="black" points="174,-497.5 174,-566.5 613,-566.5 613,-497.5 174,-497.5"/>
<text text-anchor="middle" x="303.5" y="-528.3" font-family="Times,serif" font-size="14.00">function:Int::Int(const std::string &amp;, int64_t)</text>
<polyline fill="none" stroke="black" points="433,-497.5 433,-566.5 "/>
<text text-anchor="middle" x="468" y="-551.3" font-family="Times,serif" font-size="14.00">name:a</text>
<polyline fill="none" stroke="black" points="433,-543.5 503,-543.5 "/>
<text text-anchor="middle" x="468" y="-528.3" font-family="Times,serif" font-size="14.00">value:500</text>
<polyline fill="none" stroke="black" points="433,-520.5 503,-520.5 "/>
<text text-anchor="middle" x="468" y="-505.3" font-family="Times,serif" font-size="14.00">idx:0</text>
<polyline fill="none" stroke="black" points="503,-497.5 503,-566.5 "/>
<text text-anchor="middle" x="558" y="-528.3" font-family="Times,serif" font-size="14.00">ptr:0x16b98b140</text>
</g>
<!-- 2 -->
<g id="node3" class="node">
<title>2</title>
<polygon fill="#add8e6" stroke="black" points="511.5,-424.5 511.5,-460.5 789.5,-460.5 789.5,-424.5 511.5,-424.5"/>
<text text-anchor="middle" x="650.5" y="-438.8" font-family="Times,serif" font-size="14.00">function:Int operator+(const Int &amp;, const Int &amp;)</text>
</g>
<!-- 0&#45;&gt;2 -->
<g id="edge1" class="edge">
<title>0&#45;&gt;2</title>
<path fill="none" stroke="#000000" stroke-dasharray="1,5" d="M492.13,-497.42C525.32,-486.12 561.33,-473.86 590.61,-463.89"/>
<polygon fill="#000000" stroke="#000000" points="591.93,-467.14 600.27,-460.6 589.68,-460.51 591.93,-467.14"/>
</g>
<!-- 1 -->
<g id="node2" class="node">
<title>1</title>
<polygon fill="#add8e6" stroke="black" points="685.5,-497.5 685.5,-566.5 1131.5,-566.5 1131.5,-497.5 685.5,-497.5"/>
<text text-anchor="middle" x="815" y="-528.3" font-family="Times,serif" font-size="14.00">function:Int::Int(const std::string &amp;, int64_t)</text>
<polyline fill="none" stroke="black" points="944.5,-497.5 944.5,-566.5 "/>
<text text-anchor="middle" x="983" y="-551.3" font-family="Times,serif" font-size="14.00">name:b</text>
<polyline fill="none" stroke="black" points="944.5,-543.5 1021.5,-543.5 "/>
<text text-anchor="middle" x="983" y="-528.3" font-family="Times,serif" font-size="14.00">value:1000</text>
<polyline fill="none" stroke="black" points="944.5,-520.5 1021.5,-520.5 "/>
<text text-anchor="middle" x="983" y="-505.3" font-family="Times,serif" font-size="14.00">idx:1</text>
<polyline fill="none" stroke="black" points="1021.5,-497.5 1021.5,-566.5 "/>
<text text-anchor="middle" x="1076.5" y="-528.3" font-family="Times,serif" font-size="14.00">ptr:0x16b98b1d0</text>
</g>
<!-- 1&#45;&gt;2 -->
<g id="edge2" class="edge">
<title>1&#45;&gt;2</title>
<path fill="none" stroke="#000000" stroke-dasharray="1,5" d="M809.49,-497.42C776.17,-486.12 740.02,-473.86 710.62,-463.89"/>
<polygon fill="#000000" stroke="#000000" points="711.52,-460.5 700.92,-460.6 709.27,-467.13 711.52,-460.5"/>
</g>
<!-- 3 -->
<g id="node4" class="node">
<title>3</title>
<polygon fill="#add8e6" stroke="black" points="473.5,-318.5 473.5,-387.5 827.5,-387.5 827.5,-318.5 473.5,-318.5"/>
<text text-anchor="middle" x="548.5" y="-349.3" font-family="Times,serif" font-size="14.00">function:Int::Int(int64_t)</text>
<polyline fill="none" stroke="black" points="623.5,-318.5 623.5,-387.5 "/>
<text text-anchor="middle" x="671.5" y="-372.3" font-family="Times,serif" font-size="14.00">name:tmp_var</text>
<polyline fill="none" stroke="black" points="623.5,-364.5 719.5,-364.5 "/>
<text text-anchor="middle" x="671.5" y="-349.3" font-family="Times,serif" font-size="14.00">value:1500</text>
<polyline fill="none" stroke="black" points="623.5,-341.5 719.5,-341.5 "/>
<text text-anchor="middle" x="671.5" y="-326.3" font-family="Times,serif" font-size="14.00">idx:2</text>
<polyline fill="none" stroke="black" points="719.5,-318.5 719.5,-387.5 "/>
<text text-anchor="middle" x="773.5" y="-349.3" font-family="Times,serif" font-size="14.00">ptr:0x16b98acb0</text>
</g>
<!-- 2&#45;&gt;3 -->
<g id="edge3" class="edge">
<title>2&#45;&gt;3</title>
<path fill="none" stroke="#000000" stroke-width="2" d="M650.5,-424.21C650.5,-416.53 650.5,-407.11 650.5,-397.69"/>
<polygon fill="#000000" stroke="#000000" stroke-width="2" points="654,-397.55 650.5,-387.55 647,-397.55 654,-397.55"/>
</g>
<!-- 4 -->
<g id="node5" class="node">
<title>4</title>
<polygon fill="#90ee90" stroke="black" points="427,-212.5 427,-281.5 874,-281.5 874,-212.5 427,-212.5"/>
<text text-anchor="middle" x="558" y="-243.3" font-family="Times,serif" font-size="14.00">function:Int::Int(const std::string &amp;, Int &amp;&amp;)</text>
<polyline fill="none" stroke="black" points="689,-212.5 689,-281.5 "/>
<text text-anchor="middle" x="727.5" y="-266.3" font-family="Times,serif" font-size="14.00">name:res</text>
<polyline fill="none" stroke="black" points="689,-258.5 766,-258.5 "/>
<text text-anchor="middle" x="727.5" y="-243.3" font-family="Times,serif" font-size="14.00">value:1500</text>
<polyline fill="none" stroke="black" points="689,-235.5 766,-235.5 "/>
<text text-anchor="middle" x="727.5" y="-220.3" font-family="Times,serif" font-size="14.00">idx:3</text>
<polyline fill="none" stroke="black" points="766,-212.5 766,-281.5 "/>
<text text-anchor="middle" x="820" y="-243.3" font-family="Times,serif" font-size="14.00">ptr:0x16b98ac20</text>
</g>
<!-- 3&#45;&gt;4 -->
<g id="edge4" class="edge">
<title>3&#45;&gt;4</title>
<path fill="none" stroke="#000000" stroke-dasharray="5,2" d="M650.5,-318.23C650.5,-309.79 650.5,-300.62 650.5,-291.77"/>
<polygon fill="#000000" stroke="#000000" points="654,-291.6 650.5,-281.6 647,-291.6 654,-291.6"/>
</g>
<!-- 6 -->
<g id="node7" class="node">
<title>6</title>
<polygon fill="#add8e6" stroke="black" points="284,-123 284,-159 571,-159 571,-123 284,-123"/>
<text text-anchor="middle" x="427.5" y="-137.3" font-family="Times,serif" font-size="14.00">function:bool operator&gt;(const Int &amp;, const Int &amp;)</text>
</g>
<!-- 4&#45;&gt;6 -->
<g id="edge5" class="edge">
<title>4&#45;&gt;6</title>
<path fill="none" stroke="#000000" stroke-dasharray="1,5" d="M578.41,-212.38C543.96,-196.31 503.75,-177.56 473.51,-163.46"/>
<polygon fill="#000000" stroke="#000000" points="474.6,-160.1 464.06,-159.05 471.64,-166.45 474.6,-160.1"/>
</g>
<!-- 8 -->
<g id="node9" class="node">
<title>8</title>
<polygon fill="#90ee90" stroke="black" points="670.5,-106.5 670.5,-175.5 1076.5,-175.5 1076.5,-106.5 670.5,-106.5"/>
<text text-anchor="middle" x="781" y="-137.3" font-family="Times,serif" font-size="14.00">function:Int &amp;Int::operator=(Int &amp;&amp;)</text>
<polyline fill="none" stroke="black" points="891.5,-106.5 891.5,-175.5 "/>
<text text-anchor="middle" x="930" y="-160.3" font-family="Times,serif" font-size="14.00">name:res</text>
<polyline fill="none" stroke="black" points="891.5,-152.5 968.5,-152.5 "/>
<text text-anchor="middle" x="930" y="-137.3" font-family="Times,serif" font-size="14.00">value:1000</text>
<polyline fill="none" stroke="black" points="891.5,-129.5 968.5,-129.5 "/>
<text text-anchor="middle" x="930" y="-114.3" font-family="Times,serif" font-size="14.00">idx:3</text>
<polyline fill="none" stroke="black" points="968.5,-106.5 968.5,-175.5 "/>
<text text-anchor="middle" x="1022.5" y="-137.3" font-family="Times,serif" font-size="14.00">ptr:0x16b98ac20</text>
</g>
<!-- 4&#45;&gt;8 -->
<g id="edge8" class="edge">
<title>4&#45;&gt;8</title>
<path fill="none" stroke="#000000" stroke-width="2" d="M722.59,-212.38C744.85,-202 769.51,-190.5 792.34,-179.85"/>
<polygon fill="#000000" stroke="#000000" stroke-width="2" points="794.07,-182.91 801.65,-175.51 791.11,-176.56 794.07,-182.91"/>
</g>
<!-- 5 -->
<g id="node6" class="node">
<title>5</title>
<polygon fill="#add8e6" stroke="black" points="0,-212.5 0,-281.5 355,-281.5 355,-212.5 0,-212.5"/>
<text text-anchor="middle" x="75" y="-243.3" font-family="Times,serif" font-size="14.00">function:Int::Int(int64_t)</text>
<polyline fill="none" stroke="black" points="150,-212.5 150,-281.5 "/>
<text text-anchor="middle" x="198" y="-266.3" font-family="Times,serif" font-size="14.00">name:tmp_var</text>
<polyline fill="none" stroke="black" points="150,-258.5 246,-258.5 "/>
<text text-anchor="middle" x="198" y="-243.3" font-family="Times,serif" font-size="14.00">value:1000</text>
<polyline fill="none" stroke="black" points="150,-235.5 246,-235.5 "/>
<text text-anchor="middle" x="198" y="-220.3" font-family="Times,serif" font-size="14.00">idx:4</text>
<polyline fill="none" stroke="black" points="246,-212.5 246,-281.5 "/>
<text text-anchor="middle" x="300.5" y="-243.3" font-family="Times,serif" font-size="14.00">ptr:0x16b98ad00</text>
</g>
<!-- 5&#45;&gt;6 -->
<g id="edge6" class="edge">
<title>5&#45;&gt;6</title>
<path fill="none" stroke="#000000" stroke-dasharray="1,5" d="M258.32,-212.38C297.44,-196.1 343.19,-177.07 377.24,-162.91"/>
<polygon fill="#000000" stroke="#000000" points="378.63,-166.12 386.52,-159.05 375.94,-159.66 378.63,-166.12"/>
</g>
<!-- 7 -->
<g id="node8" class="node">
<title>7</title>
<polygon fill="#add8e6" stroke="black" points="946,-212.5 946,-281.5 1301,-281.5 1301,-212.5 946,-212.5"/>
<text text-anchor="middle" x="1021" y="-243.3" font-family="Times,serif" font-size="14.00">function:Int::Int(int64_t)</text>
<polyline fill="none" stroke="black" points="1096,-212.5 1096,-281.5 "/>
<text text-anchor="middle" x="1144" y="-266.3" font-family="Times,serif" font-size="14.00">name:tmp_var</text>
<polyline fill="none" stroke="black" points="1096,-258.5 1192,-258.5 "/>
<text text-anchor="middle" x="1144" y="-243.3" font-family="Times,serif" font-size="14.00">value:1000</text>
<polyline fill="none" stroke="black" points="1096,-235.5 1192,-235.5 "/>
<text text-anchor="middle" x="1144" y="-220.3" font-family="Times,serif" font-size="14.00">idx:5</text>
<polyline fill="none" stroke="black" points="1192,-212.5 1192,-281.5 "/>
<text text-anchor="middle" x="1246.5" y="-243.3" font-family="Times,serif" font-size="14.00">ptr:0x16b98ad50</text>
</g>
<!-- 7&#45;&gt;8 -->
<g id="edge7" class="edge">
<title>7&#45;&gt;8</title>
<path fill="none" stroke="#000000" stroke-dasharray="5,2" d="M1042.68,-212.38C1017.39,-201.86 989.34,-190.19 963.47,-179.43"/>
<polygon fill="#000000" stroke="#000000" points="964.62,-176.12 954.04,-175.51 961.93,-182.58 964.62,-176.12"/>
</g>
<!-- 9 -->
<g id="node10" class="node">
<title>9</title>
<polygon fill="#90ee90" stroke="black" points="694,-0.5 694,-69.5 1053,-69.5 1053,-0.5 694,-0.5"/>
<text text-anchor="middle" x="770.5" y="-31.3" font-family="Times,serif" font-size="14.00">function:Int::Int(Int &amp;&amp;)</text>
<polyline fill="none" stroke="black" points="847,-0.5 847,-69.5 "/>
<text text-anchor="middle" x="895" y="-54.3" font-family="Times,serif" font-size="14.00">name:tmp_var</text>
<polyline fill="none" stroke="black" points="847,-46.5 943,-46.5 "/>
<text text-anchor="middle" x="895" y="-31.3" font-family="Times,serif" font-size="14.00">value:1000</text>
<polyline fill="none" stroke="black" points="847,-23.5 943,-23.5 "/>
<text text-anchor="middle" x="895" y="-8.3" font-family="Times,serif" font-size="14.00">idx:6</text>
<polyline fill="none" stroke="black" points="943,-0.5 943,-69.5 "/>
<text text-anchor="middle" x="998" y="-31.3" font-family="Times,serif" font-size="14.00">ptr:0x16b98b260</text>
</g>
<!-- 8&#45;&gt;9 -->
<g id="edge9" class="edge">
<title>8&#45;&gt;9</title>
<path fill="none" stroke="#000000" stroke-dasharray="5,2" d="M873.5,-106.23C873.5,-97.79 873.5,-88.62 873.5,-79.77"/>
<polygon fill="#000000" stroke="#000000" points="877,-79.6 873.5,-69.6 870,-79.6 877,-79.6"/>
</g>
</g>
</svg>
